<svg id="图层_1" data-name="图层 1" xmlns="http://www.w3.org/2000/svg" viewBox="0 0 20 20"><defs><style>.cls-1{fill:#7f8080;}</style></defs><title>email</title><g id="组_43" data-name="组 43"><path id="路径_29" data-name="路径 29" class="cls-1" d="M18.2,4.62a1.12,1.12,0,0,0,.48-.78.52.52,0,0,0-.57-.45H2a.52.52,0,0,0-.57.45,1.12,1.12,0,0,0,.48.78l7.66,5a.94.94,0,0,0,1,0Z"/></g><g id="组_44" data-name="组 44"><path id="路径_30" data-name="路径 30" class="cls-1" d="M1.53,6.26c-.54-.34-1-.1-1,.54v8.43a1.16,1.16,0,0,0,1.15,1.16h16.7a1.16,1.16,0,0,0,1.15-1.16V6.8c0-.64-.44-.88-1-.54L11,11.13a2,2,0,0,1-1.94,0Z"/></g></svg>