<svg id="图层_1" data-name="图层 1" xmlns="http://www.w3.org/2000/svg" xmlns:xlink="http://www.w3.org/1999/xlink" viewBox="0 0 394.83 127.11"><defs><style>.cls-1,.cls-2,.cls-3{fill:#fff;}.cls-1{clip-rule:evenodd;}.cls-3{fill-rule:evenodd;}.cls-4{clip-path:url(#clip-path);}.cls-5{clip-path:url(#clip-path-2);}.cls-6{clip-path:url(#clip-path-3);}</style><clipPath id="clip-path"><path class="cls-1" d="M0,127.11H16.77v-17H0Zm18.21,0H35.12v-17H18.21Zm18.36,0H53.48v-17H36.57Zm18.36,0H71.7v-17H54.93Zm18.36,0H90.05v-17H73.29ZM0,108.82H16.77V92H0ZM18.21,90.68H35.12v-17H18.21ZM36.57,72.54H53.48v-17H36.57ZM54.93,54.25H71.7v-17H54.93ZM73.29,36.11H90.05v-17H73.29ZM0,17.82H16.77V.84H0Zm18.21,0H35.12V.84H18.21Zm18.36,0H53.48V.84H36.57Zm18.36,0H71.7V.84H54.93Zm18.36,0H90.05V.84H73.29Z"/></clipPath><clipPath id="clip-path-2"><path class="cls-1" d="M124.91,127.11h16.91v-17H124.91Zm18.35,0h16.92v-17H143.26Zm18.36,0h16.77v-17H161.62Zm-54.93-18.29h16.77V92H106.69Zm73.29,0h16.77V92H180ZM106.69,90.68h16.77v-17H106.69Zm73.29,0h16.77v-17H180ZM106.69,72.54h16.77v-17H106.69Zm73.29,0h16.77v-17H180ZM106.69,54.25h16.77v-17H106.69Zm73.29,0h16.77v-17H180ZM106.69,36.11h16.77v-17H106.69Zm73.29,0h16.77v-17H180ZM106.69,17.82h16.77V.84H106.69Zm73.29,0h16.77V.84H180Z"/></clipPath><clipPath id="clip-path-3"><path class="cls-1" d="M231.6,127.11h16.91v-17H231.6Zm18.36,0h16.91v-17H250Zm18.35,0h16.77v-17H268.31Zm-54.92-18.29h16.76V92H213.39Zm73.28,0h16.77V92H286.67Zm0-18.14h16.77v-17H286.67ZM231.6,72.54h16.91v-17H231.6Zm18.36,0h16.91v-17H250Zm18.35,0h16.77v-17H268.31ZM213.39,54.25h16.76v-17H213.39Zm0-18.14h16.76v-17H213.39Zm73.28,0h16.77v-17H286.67ZM231.6,17.82h16.91V.84H231.6Zm18.36,0h16.91V.84H250Zm18.35,0h16.77V.84H268.31Z"/></clipPath></defs><title>SVG</title><path class="cls-2" d="M313.6,116.48h9.65v9.65H313.6Z"/><path class="cls-2" d="M339.35,85.3a27.94,27.94,0,0,1,14.48-4.14c12.57,0,17.65,6.2,17.65,18.18v18.17a69.5,69.5,0,0,0,.35,8.62h-7.58v-5.69h-.17a16.32,16.32,0,0,1-13.61,6.72c-9.48,0-16.11-4.13-16.11-13.69,0-11,12.06-14.48,20.41-14.48,3.19,0,5.43,0,8.62.18,0-7.58-2.76-11.46-10.86-11.46a20.67,20.67,0,0,0-12.75,4.48Zm24,19.9c-1.73,0-3.45-.18-5.17-.18-4.39,0-15.25.69-15.25,8.45,0,4.65,4.48,7.15,8.19,7.15,8,0,12.23-5,12.23-11.55Z"/><path class="cls-2" d="M394.83,72.37h-9.14V63.24h9.14Zm-8.62,9.82h8.1v43.94h-8.1Z"/><path class="cls-3" d="M0,127.11H16.77v-17H0Zm18.21,0H35.12v-17H18.21Zm18.36,0H53.48v-17H36.57Zm18.36,0H71.7v-17H54.93Zm18.36,0H90.05v-17H73.29ZM0,108.82H16.77V92H0ZM18.21,90.68H35.12v-17H18.21ZM36.57,72.54H53.48v-17H36.57ZM54.93,54.25H71.7v-17H54.93ZM73.29,36.11H90.05v-17H73.29ZM0,17.82H16.77V.84H0Zm18.21,0H35.12V.84H18.21Zm18.36,0H53.48V.84H36.57Zm18.36,0H71.7V.84H54.93Zm18.36,0H90.05V.84H73.29Z"/><g class="cls-4"><rect class="cls-2" x="-4.89" y="-4.06" width="99.84" height="136.06"/></g><path class="cls-3" d="M124.91,127.11h16.91v-17H124.91Zm18.35,0h16.92v-17H143.26Zm18.36,0h16.77v-17H161.62Zm-54.93-18.29h16.77V92H106.69Zm73.29,0h16.77V92H180ZM106.69,90.68h16.77v-17H106.69Zm73.29,0h16.77v-17H180ZM106.69,72.54h16.77v-17H106.69Zm73.29,0h16.77v-17H180ZM106.69,54.25h16.77v-17H106.69Zm73.29,0h16.77v-17H180ZM106.69,36.11h16.77v-17H106.69Zm73.29,0h16.77v-17H180ZM106.69,17.82h16.77V.84H106.69Zm73.29,0h16.77V.84H180Z"/><g class="cls-5"><rect class="cls-2" x="101.8" y="-4.06" width="99.84" height="136.06"/></g><path class="cls-3" d="M231.6,127.11h16.91v-17H231.6Zm18.36,0h16.91v-17H250Zm18.35,0h16.77v-17H268.31Zm-54.92-18.29h16.76V92H213.39Zm73.28,0h16.77V92H286.67Zm0-18.14h16.77v-17H286.67ZM231.6,72.54h16.91v-17H231.6Zm18.36,0h16.91v-17H250Zm18.35,0h16.77v-17H268.31ZM213.39,54.25h16.76v-17H213.39Zm0-18.14h16.76v-17H213.39Zm73.28,0h16.77v-17H286.67ZM231.6,17.82h16.91V.84H231.6Zm18.36,0h16.91V.84H250Zm18.35,0h16.77V.84H268.31Z"/><g class="cls-6"><rect class="cls-2" x="208.49" y="-4.06" width="99.84" height="136.06"/></g></svg>