<?xml version="1.0" encoding="utf-8"?>
<!-- Generator: Adobe Illustrator 23.0.0, SVG Export Plug-In . SVG Version: 6.00 Build 0)  -->
<svg version="1.1" id="图层_1" xmlns="http://www.w3.org/2000/svg" xmlns:xlink="http://www.w3.org/1999/xlink" x="0px" y="0px"
	 viewBox="0 0 781 428" style="enable-background:new 0 0 781 428;" xml:space="preserve">
<style type="text/css">
	.st0{fill:#666666;}
	.st1{font-family:'HelveticaNeue-Light';}
	.st2{font-size:18px;}
	.st3{font-family:'HelveticaNeue-Thin';}
	.st4{font-size:14px;}
	.st5{fill:#C00000;}
	.st6{font-family:'HelveticaNeue-Bold';}
	.st7{font-size:40px;}
	.st8{fill:none;stroke:#E6E6E6;stroke-width:2;stroke-miterlimit:10;}
	.st9{fill:none;stroke:#E6E6E6;stroke-width:2;}
	.st10{fill:#898787;}
	.st11{font-family:'Helvetica-Bold';}
	.st12{font-family:'Helvetica-Light';}
	.st13{font-size:14.7952px;}
	.st14{font-size:36.9879px;}
	.st15{fill:#F2F2F2;}
</style>
<title>1</title>
<g id="组_106">
	<g id="Investment_for_ZUS.a">
		<text transform="matrix(1 0 0 1 49.87 17)" class="st0 st1 st2">Investment for ZUS.ai</text>
	</g>
	<g id="_10_per_month_per_Vehicleĵvehicles">
		<text transform="matrix(1 0 0 1 49.87 45)" class="st0 st3 st4">$10 per month per </text>
		<text transform="matrix(1 0 0 1 163.49 45)" class="st0 st3 st4">V</text>
		<text transform="matrix(1 0 0 1 170.69 45)" class="st0 st3 st4">ehicle</text>
		<text transform="matrix(1 0 0 1 49.87 67)" class="st0 st3 st4">x135 vehicles</text>
	</g>
</g>
<g id="组_107">
	<g id="Cost_saved_by_ZUS.ai">
		<text transform="matrix(1 0 0 1 342.87 17)" class="st0 st1 st2">Cost saved by ZUS.ai</text>
	</g>
	<g id="Salary_Saved_9672_Facility_Rental_Saved_835_Net_Profit_Saved_4091">
		<text transform="matrix(1 0 0 1 342.87 45)" class="st0 st3 st4">Sala</text>
		<text transform="matrix(1 0 0 1 368.04 45)" class="st0 st3 st4">r</text>
		<text transform="matrix(1 0 0 1 372.19 45)" class="st0 st3 st4">y Saved =$9672</text>
		<text transform="matrix(1 0 0 1 342.87 67)" class="st0 st3 st4">F</text>
		<text transform="matrix(1 0 0 1 349.67 67)" class="st0 st3 st4">acility Rental Saved=$835</text>
		<text transform="matrix(1 0 0 1 342.87 89)" class="st0 st3 st4">Net </text>
		<text transform="matrix(1 0 0 1 367.15 89)" class="st0 st3 st4">P</text>
		<text transform="matrix(1 0 0 1 375.14 89)" class="st0 st3 st4">r</text>
		<text transform="matrix(1 0 0 1 378.86 89)" class="st0 st3 st4">ofit Saved=$4091</text>
	</g>
</g>
<g id="ROI">
	<text transform="matrix(1 0 0 1 635.87 39)" class="st5 st6 st7">ROI</text>
</g>
<g id="_">
	<text transform="matrix(6.123234e-17 1 -1 6.123234e-17 656.8691 64)" class="st5 st6 st7">=</text>
</g>
<line id="直线_5" class="st8" x1="302.9" y1="0" x2="302.9" y2="428"/>
<line id="直线_32" class="st8" x1="9.9" y1="0" x2="9.9" y2="428"/>
<line id="直线_6" class="st8" x1="595.9" y1="0" x2="595.9" y2="428"/>
<path id="路径_56" class="st9" d="M9.1,319.9c12.4,4,25.3,6.1,38.3,6.4c66,2.4,108.1-37.3,164-60.9
	c69.8-29.4,115.6-8.1,179.3-15.3c53-6,124.8-32.5,205.3-123.5"/>
<circle id="椭圆_8" class="st10" cx="9.9" cy="318" r="9.5"/>
<circle id="椭圆_9" class="st10" cx="302.9" cy="249" r="9.5"/>
<circle id="椭圆_10" class="st5" cx="595.9" cy="129" r="9.5"/>
<g id="_10.8x">
	<text transform="matrix(1 0 0 1 635.87 149)" class="st5 st11 st7">10.8x</text>
</g>
<g id="_14_598_1">
	<text transform="matrix(1 0 0 1 640.87 180)" class="st5 st1 st2">($14,598/$1,350 )</text>
</g>
<g>
	<text transform="matrix(1 0 0 1 117.5596 348.5172)"><tspan x="0" y="0" class="st0 st12 st13">Total</tspan><tspan x="0" y="37" class="st0 st11 st14">1,350</tspan></text>
</g>
<circle class="st0" cx="78.4" cy="363.7" r="30.7"/>
<g>
	<path class="st15" d="M76.8,366c-5.2-0.8-10.6-3.9-10.6-9.8c0-6.6,5.1-9.5,11.2-9.7v-3.9h2.8v3.9c2.9,0,6.4,0.4,8.6,1.4l-0.6,6.3
		c-2.1-1-5.4-1.9-8-1.9v7c5.9,1.3,10.9,3.2,10.9,10.6c0,6.8-5.8,9.9-11.6,10v4h-2.8v-4c-3,0-7.5-0.5-9.4-1.2l0.6-6.6
		c2.9,1.2,5.9,1.7,8.8,1.7V366z M77.4,352.3c-2.1,0.1-3.7,1.4-3.7,3.2c0,2,1.7,3.1,3.7,3.3V352.3z M79.6,373.9c2.5-0.2,4-1.3,4-4
		c0-2.3-2.1-3.1-4-3.4V373.9z"/>
</g>
<g>
	<g>
		<text transform="matrix(1 0 0 1 411.6133 273.9974)"><tspan x="0" y="0" class="st0 st12 st13">Total Cost Saved</tspan><tspan x="0" y="37" class="st0 st11 st14">14,598</tspan></text>
	</g>
	<circle class="st0" cx="372.5" cy="289.2" r="30.7"/>
	<g>
		<path class="st15" d="M370.9,291.5c-5.2-0.8-10.6-3.9-10.6-9.8c0-6.6,5.1-9.5,11.2-9.7V268h2.8v3.9c2.9,0,6.4,0.4,8.6,1.4
			l-0.6,6.3c-2.1-1-5.4-1.9-8-1.9v7c5.9,1.3,10.9,3.2,10.9,10.6c0,6.8-5.8,9.9-11.6,10v4h-2.8v-4c-3,0-7.5-0.5-9.4-1.2l0.6-6.6
			c2.9,1.2,5.9,1.7,8.8,1.7V291.5z M371.5,277.8c-2.1,0.1-3.7,1.4-3.7,3.2c0,2,1.7,3.1,3.7,3.3V277.8z M373.6,299.3
			c2.5-0.2,4-1.3,4-4c0-2.3-2.1-3.1-4-3.4V299.3z"/>
	</g>
</g>
</svg>
